<?xml version="1.0" encoding="UTF-8" standalone="no"?>
<svg
   xmlns:dc="http://purl.org/dc/elements/1.1/"
   xmlns:cc="http://creativecommons.org/ns#"
   xmlns:rdf="http://www.w3.org/1999/02/22-rdf-syntax-ns#"
   xmlns:svg="http://www.w3.org/2000/svg"
   xmlns="http://www.w3.org/2000/svg"
   xmlns:sodipodi="http://sodipodi.sourceforge.net/DTD/sodipodi-0.dtd"
   xmlns:inkscape="http://www.inkscape.org/namespaces/inkscape"
   version="1.1"
   viewBox="0 0 47.5 47.5"
   style="enable-background:new 0 0 47.5 47.5;"
   id="svg2"
   xml:space="preserve"
   inkscape:version="0.91 r13725"
   sodipodi:docname="bug.svg"><metadata
     id="metadata41"><rdf:RDF><cc:Work
         rdf:about=""><dc:format>image/svg+xml</dc:format><dc:type
           rdf:resource="http://purl.org/dc/dcmitype/StillImage" /><dc:title></dc:title></cc:Work></rdf:RDF></metadata><sodipodi:namedview
     pagecolor="#ffffff"
     bordercolor="#666666"
     borderopacity="1"
     objecttolerance="10"
     gridtolerance="10"
     guidetolerance="10"
     inkscape:pageopacity="0"
     inkscape:pageshadow="2"
     inkscape:window-width="1863"
     inkscape:window-height="1056"
     id="namedview39"
     showgrid="false"
     inkscape:zoom="19.768421"
     inkscape:cx="23.75"
     inkscape:cy="23.75"
     inkscape:window-x="57"
     inkscape:window-y="24"
     inkscape:window-maximized="1"
     inkscape:current-layer="svg2" /><defs
     id="defs6"><clipPath
       id="clipPath18"><path
         d="M 0,38 38,38 38,0 0,0 0,38 z"
         id="path20" /></clipPath></defs><path
     d="m 45,27.5 -42.5,0 C 1.81,27.5 1.25,26.94125 1.25,26.25 1.25,25.55875 1.81,25 2.5,25 L 45,25 c 0.69125,0 1.25,0.55875 1.25,1.25 0,0.69125 -0.55875,1.25 -1.25,1.25"
     id="path24"
     style="fill:#292f33;fill-opacity:1;fill-rule:nonzero;stroke:none"
     inkscape:connector-curvature="0" /><path
     d="M 17.2785,25 C 17.24975,25 17.221,24.99875 17.19225,24.9975 17.07725,24.98875 5.67475,24.105 3.77475,14.70375 3.6385,14.02625 4.076,13.3675 4.75225,13.23 5.431,13.09 6.0885,13.5325 6.22475,14.2075 7.751,21.7625 17.266,22.49625 17.36225,22.5025 18.051,22.55 18.571,23.14625 18.52475,23.835 18.47975,24.495 17.92975,25 17.2785,25"
     id="path28"
     style="fill:#292f33;fill-opacity:1;fill-rule:nonzero;stroke:none"
     inkscape:connector-curvature="0" /><path
     d="m 4.999375,40 c -0.1775,0 -0.3575,-0.0375 -0.52875,-0.1175 -0.625,-0.2925 -0.895,-1.03625 -0.6025,-1.6625 3.9575,-8.4625 13.7975,-9.65125 14.215,-9.6975 0.685,-0.06875 1.30125,0.4175 1.37875,1.1025 0.0775,0.685 -0.41625,1.30375 -1.10125,1.38375 -0.0875,0.0087 -8.87375,1.095 -12.22875,8.27125 -0.2125,0.45375 -0.6625,0.72 -1.1325,0.72"
     id="path32"
     style="fill:#292f33;fill-opacity:1;fill-rule:nonzero;stroke:none"
     inkscape:connector-curvature="0" /><path
     d="m 29.691125,25 c -0.6525,0 -1.20125,-0.50625 -1.245,-1.1675 -0.045,-0.6875 0.47625,-1.2825 1.16375,-1.33 0.10125,-0.0063 10.145,-0.77125 11.665,-8.295 0.135,-0.67625 0.79,-1.11875 1.4725,-0.9775 0.67625,0.1375 1.115,0.79625 0.97875,1.47375 -1.9025,9.40625 -13.46125,10.2625 -13.95375,10.29375 -0.02625,0.0013 -0.055,0.0025 -0.08125,0.0025"
     id="path36"
     style="fill:#292f33;fill-opacity:1;fill-rule:nonzero;stroke:none"
     inkscape:connector-curvature="0" /><path
     d="M 42.50125,40 C 42.03,40 41.58,39.73375 41.3675,39.28 37.99875,32.07625 28.7125,31.0175 28.62,31.00875 27.9325,30.93625 27.43375,30.32125 27.5075,29.635 27.57875,28.9475 28.20125,28.445 28.88125,28.5225 29.32,28.56875 39.6725,29.7525 43.6325,38.22 43.925,38.84625 43.655,39.59 43.03,39.8825 42.8575,39.9625 42.67875,40 42.50125,40"
     id="path40"
     style="fill:#292f33;fill-opacity:1;fill-rule:nonzero;stroke:none"
     inkscape:connector-curvature="0" /><path
     d="m 32.486625,10.957 c -0.08625,-3.2825 -1.59625,-5.27 -3.86875,-6.3 -0.785263,-0.5579861 -2.488539,-0.737778 -3.6175,-0.9075 -0.344546,-0.037385 -0.92862,-0.02808 -1.24995,-0.039063 -0.425786,0.00354 -0.977091,0.022874 -1.25,0.039063 -0.839568,0.053429 -2.166833,0.2448585 -3.61875,0.9075 -2.27125,1.03 -3.78125,3.0175 -3.86875,6.3 -3.7875,2.23125 -6.2625,6.12 -6.2625,11.5425 0,8.95 6.715,21.15375 15,21.15375 8.285,0 15,-12.20375 15,-21.15375 0,-5.4225 -2.47625,-9.31125 -6.26375,-11.5425"
     id="path44"
     style="fill:#292f33;fill-opacity:1;fill-rule:nonzero;stroke:none"
     inkscape:connector-curvature="0"
     sodipodi:nodetypes="cccccccsssc" /><path
     d="M 21.25125,44.94875 C 13.205,44.205 6.875,36.33 6.875,26.7225 c 0,-9.60625 6.33,-13.47625 14.375,-14.22125 0.4125,-0.03875 1.25,-0.0575 1.25,2.8675 l 0,28.17625 c 0,1.4625 -0.83625,1.44375 -1.24875,1.40375"
     id="path48"
     style="fill:#dd2e44;fill-opacity:1;fill-rule:nonzero;stroke:none"
     inkscape:connector-curvature="0" /><path
     d="M 26.24875,44.94875 C 34.295,44.205 40.625,36.33 40.625,26.7225 40.625,17.11625 34.295,13.24625 26.25,12.50125 25.8375,12.4625 25,12.44375 25,15.36875 L 25,43.545 c 0,1.4625 0.8375,1.44375 1.24875,1.40375"
     id="path52"
     style="fill:#dd2e44;fill-opacity:1;fill-rule:nonzero;stroke:none"
     inkscape:connector-curvature="0" /><path
     d="m 20,20 c 0,1.38 -1.12,2.5 -2.5,2.5 -1.38,0 -2.5,-1.12 -2.5,-2.5 0,-1.38 1.12,-2.5 2.5,-2.5 1.38,0 2.5,1.12 2.5,2.5"
     id="path56"
     style="fill:#292f33;fill-opacity:1;fill-rule:nonzero;stroke:none"
     inkscape:connector-curvature="0" /><path
     d="m 17.5,28.75 c 0,2.07125 -1.67875,3.75 -3.75,3.75 C 11.67875,32.5 10,30.82125 10,28.75 10,26.67875 11.67875,25 13.75,25 c 2.07125,0 3.75,1.67875 3.75,3.75"
     id="path60"
     style="fill:#292f33;fill-opacity:1;fill-rule:nonzero;stroke:none"
     inkscape:connector-curvature="0" /><path
     d="M 20,37.5 C 20,38.88 18.88,40 17.5,40 16.12,40 15,38.88 15,37.5 15,36.12 16.12,35 17.5,35 c 1.38,0 2.5,1.12 2.5,2.5"
     id="path64"
     style="fill:#292f33;fill-opacity:1;fill-rule:nonzero;stroke:none"
     inkscape:connector-curvature="0" /><path
     d="m 35,19.375 c 0,1.72625 -1.39875,3.125 -3.125,3.125 -1.72625,0 -3.125,-1.39875 -3.125,-3.125 0,-1.72625 1.39875,-3.125 3.125,-3.125 1.72625,0 3.125,1.39875 3.125,3.125"
     id="path68"
     style="fill:#292f33;fill-opacity:1;fill-rule:nonzero;stroke:none"
     inkscape:connector-curvature="0" /><path
     d="m 31.25,26.875 c 0,1.035 -0.84,1.875 -1.875,1.875 C 28.34,28.75 27.5,27.91 27.5,26.875 27.5,25.84 28.34,25 29.375,25 c 1.035,0 1.875,0.84 1.875,1.875"
     id="path72"
     style="fill:#292f33;fill-opacity:1;fill-rule:nonzero;stroke:none"
     inkscape:connector-curvature="0" /><path
     d="m 38.75,30 c 0,1.38 -1.12,2.5 -2.5,2.5 -1.38,0 -2.5,-1.12 -2.5,-2.5 0,-1.38 1.12,-2.5 2.5,-2.5 1.38,0 2.5,1.12 2.5,2.5"
     id="path76"
     style="fill:#292f33;fill-opacity:1;fill-rule:nonzero;stroke:none"
     inkscape:connector-curvature="0" /><path
     d="m 35,37.5 c 0,2.07125 -1.67875,3.75 -3.75,3.75 -2.07125,0 -3.75,-1.67875 -3.75,-3.75 0,-2.07125 1.67875,-3.75 3.75,-3.75 2.07125,0 3.75,1.67875 3.75,3.75"
     id="path80"
     style="fill:#292f33;fill-opacity:1;fill-rule:nonzero;stroke:none"
     inkscape:connector-curvature="0" /><path
     inkscape:connector-curvature="0"
     style="fill:#ffffff;fill-opacity:1;fill-rule:nonzero;stroke:none"
     id="path4287"
     d="m 23.116262,8.3451829 c 0,1.7262501 -1.39875,3.1250001 -3.125,3.1250001 -1.72625,0 -3.125,-1.39875 -3.125,-3.1250001 0,-1.72625 1.39875,-3.125 3.125,-3.125 1.72625,0 3.125,1.39875 3.125,3.125" /><path
     d="m 30.445753,8.3451829 c 0,1.7262501 -1.39875,3.1250001 -3.125,3.1250001 -1.72625,0 -3.125,-1.39875 -3.125,-3.1250001 0,-1.72625 1.39875,-3.125 3.125,-3.125 1.72625,0 3.125,1.39875 3.125,3.125"
     id="path4289"
     style="fill:#ffffff;fill-opacity:1;fill-rule:nonzero;stroke:none"
     inkscape:connector-curvature="0" /><path
     inkscape:connector-curvature="0"
     style="fill:#292f33;fill-opacity:1;fill-rule:nonzero;stroke:none"
     id="path4291"
     d="m 21.866262,7.7449998 c 0,1.035 -0.84,1.8750002 -1.875,1.8750002 -1.035,0 -1.875,-0.8400002 -1.875,-1.8750002 0,-1.035 0.84,-1.875 1.875,-1.875 1.035,0 1.875,0.84 1.875,1.875" /><path
     d="m 29.195753,7.7449998 c 0,1.035 -0.84,1.8750002 -1.875,1.8750002 -1.035,0 -1.875,-0.8400002 -1.875,-1.8750002 0,-1.035 0.84,-1.875 1.875,-1.875 1.035,0 1.875,0.84 1.875,1.875"
     id="path4293"
     style="fill:#292f33;fill-opacity:1;fill-rule:nonzero;stroke:none"
     inkscape:connector-curvature="0" /></svg>